%TF.GenerationSoftware,KiCad,Pcbnew,7.0.7*%
%TF.CreationDate,2023-12-17T00:09:53-06:00*%
%TF.ProjectId,AAA Battery Board,41414120-4261-4747-9465-727920426f61,rev?*%
%TF.SameCoordinates,Original*%
%TF.FileFunction,Legend,Top*%
%TF.FilePolarity,Positive*%
%FSLAX46Y46*%
G04 Gerber Fmt 4.6, Leading zero omitted, Abs format (unit mm)*
G04 Created by KiCad (PCBNEW 7.0.7) date 2023-12-17 00:09:53*
%MOMM*%
%LPD*%
G01*
G04 APERTURE LIST*
%ADD10C,0.240000*%
%ADD11C,0.150000*%
%ADD12C,0.200000*%
%ADD13C,0.120000*%
%ADD14C,0.152400*%
%ADD15C,0.127000*%
G04 APERTURE END LIST*
D10*
X118843608Y-57505091D02*
X118443608Y-57505091D01*
X118443608Y-58133662D02*
X118443608Y-56933662D01*
X118443608Y-56933662D02*
X119015036Y-56933662D01*
X120100750Y-58133662D02*
X119415036Y-58133662D01*
X119757893Y-58133662D02*
X119757893Y-56933662D01*
X119757893Y-56933662D02*
X119643607Y-57105091D01*
X119643607Y-57105091D02*
X119529322Y-57219377D01*
X119529322Y-57219377D02*
X119415036Y-57276520D01*
X120615036Y-58019377D02*
X120672179Y-58076520D01*
X120672179Y-58076520D02*
X120615036Y-58133662D01*
X120615036Y-58133662D02*
X120557893Y-58076520D01*
X120557893Y-58076520D02*
X120615036Y-58019377D01*
X120615036Y-58019377D02*
X120615036Y-58133662D01*
X120615036Y-57390805D02*
X120672179Y-57447948D01*
X120672179Y-57447948D02*
X120615036Y-57505091D01*
X120615036Y-57505091D02*
X120557893Y-57447948D01*
X120557893Y-57447948D02*
X120615036Y-57390805D01*
X120615036Y-57390805D02*
X120615036Y-57505091D01*
X122672179Y-56933662D02*
X122100751Y-56933662D01*
X122100751Y-56933662D02*
X122043608Y-57505091D01*
X122043608Y-57505091D02*
X122100751Y-57447948D01*
X122100751Y-57447948D02*
X122215037Y-57390805D01*
X122215037Y-57390805D02*
X122500751Y-57390805D01*
X122500751Y-57390805D02*
X122615037Y-57447948D01*
X122615037Y-57447948D02*
X122672179Y-57505091D01*
X122672179Y-57505091D02*
X122729322Y-57619377D01*
X122729322Y-57619377D02*
X122729322Y-57905091D01*
X122729322Y-57905091D02*
X122672179Y-58019377D01*
X122672179Y-58019377D02*
X122615037Y-58076520D01*
X122615037Y-58076520D02*
X122500751Y-58133662D01*
X122500751Y-58133662D02*
X122215037Y-58133662D01*
X122215037Y-58133662D02*
X122100751Y-58076520D01*
X122100751Y-58076520D02*
X122043608Y-58019377D01*
X123243608Y-58133662D02*
X123243608Y-57333662D01*
X123243608Y-57447948D02*
X123300751Y-57390805D01*
X123300751Y-57390805D02*
X123415036Y-57333662D01*
X123415036Y-57333662D02*
X123586465Y-57333662D01*
X123586465Y-57333662D02*
X123700751Y-57390805D01*
X123700751Y-57390805D02*
X123757894Y-57505091D01*
X123757894Y-57505091D02*
X123757894Y-58133662D01*
X123757894Y-57505091D02*
X123815036Y-57390805D01*
X123815036Y-57390805D02*
X123929322Y-57333662D01*
X123929322Y-57333662D02*
X124100751Y-57333662D01*
X124100751Y-57333662D02*
X124215036Y-57390805D01*
X124215036Y-57390805D02*
X124272179Y-57505091D01*
X124272179Y-57505091D02*
X124272179Y-58133662D01*
X124843608Y-58133662D02*
X124843608Y-57333662D01*
X124843608Y-57447948D02*
X124900751Y-57390805D01*
X124900751Y-57390805D02*
X125015036Y-57333662D01*
X125015036Y-57333662D02*
X125186465Y-57333662D01*
X125186465Y-57333662D02*
X125300751Y-57390805D01*
X125300751Y-57390805D02*
X125357894Y-57505091D01*
X125357894Y-57505091D02*
X125357894Y-58133662D01*
X125357894Y-57505091D02*
X125415036Y-57390805D01*
X125415036Y-57390805D02*
X125529322Y-57333662D01*
X125529322Y-57333662D02*
X125700751Y-57333662D01*
X125700751Y-57333662D02*
X125815036Y-57390805D01*
X125815036Y-57390805D02*
X125872179Y-57505091D01*
X125872179Y-57505091D02*
X125872179Y-58133662D01*
X127243608Y-58133662D02*
X127872180Y-57333662D01*
X127243608Y-57333662D02*
X127872180Y-58133662D01*
X129186466Y-57047948D02*
X129243609Y-56990805D01*
X129243609Y-56990805D02*
X129357895Y-56933662D01*
X129357895Y-56933662D02*
X129643609Y-56933662D01*
X129643609Y-56933662D02*
X129757895Y-56990805D01*
X129757895Y-56990805D02*
X129815037Y-57047948D01*
X129815037Y-57047948D02*
X129872180Y-57162234D01*
X129872180Y-57162234D02*
X129872180Y-57276520D01*
X129872180Y-57276520D02*
X129815037Y-57447948D01*
X129815037Y-57447948D02*
X129129323Y-58133662D01*
X129129323Y-58133662D02*
X129872180Y-58133662D01*
X130615037Y-56933662D02*
X130729323Y-56933662D01*
X130729323Y-56933662D02*
X130843609Y-56990805D01*
X130843609Y-56990805D02*
X130900752Y-57047948D01*
X130900752Y-57047948D02*
X130957894Y-57162234D01*
X130957894Y-57162234D02*
X131015037Y-57390805D01*
X131015037Y-57390805D02*
X131015037Y-57676520D01*
X131015037Y-57676520D02*
X130957894Y-57905091D01*
X130957894Y-57905091D02*
X130900752Y-58019377D01*
X130900752Y-58019377D02*
X130843609Y-58076520D01*
X130843609Y-58076520D02*
X130729323Y-58133662D01*
X130729323Y-58133662D02*
X130615037Y-58133662D01*
X130615037Y-58133662D02*
X130500752Y-58076520D01*
X130500752Y-58076520D02*
X130443609Y-58019377D01*
X130443609Y-58019377D02*
X130386466Y-57905091D01*
X130386466Y-57905091D02*
X130329323Y-57676520D01*
X130329323Y-57676520D02*
X130329323Y-57390805D01*
X130329323Y-57390805D02*
X130386466Y-57162234D01*
X130386466Y-57162234D02*
X130443609Y-57047948D01*
X130443609Y-57047948D02*
X130500752Y-56990805D01*
X130500752Y-56990805D02*
X130615037Y-56933662D01*
X131529323Y-58133662D02*
X131529323Y-57333662D01*
X131529323Y-57447948D02*
X131586466Y-57390805D01*
X131586466Y-57390805D02*
X131700751Y-57333662D01*
X131700751Y-57333662D02*
X131872180Y-57333662D01*
X131872180Y-57333662D02*
X131986466Y-57390805D01*
X131986466Y-57390805D02*
X132043609Y-57505091D01*
X132043609Y-57505091D02*
X132043609Y-58133662D01*
X132043609Y-57505091D02*
X132100751Y-57390805D01*
X132100751Y-57390805D02*
X132215037Y-57333662D01*
X132215037Y-57333662D02*
X132386466Y-57333662D01*
X132386466Y-57333662D02*
X132500751Y-57390805D01*
X132500751Y-57390805D02*
X132557894Y-57505091D01*
X132557894Y-57505091D02*
X132557894Y-58133662D01*
X133129323Y-58133662D02*
X133129323Y-57333662D01*
X133129323Y-57447948D02*
X133186466Y-57390805D01*
X133186466Y-57390805D02*
X133300751Y-57333662D01*
X133300751Y-57333662D02*
X133472180Y-57333662D01*
X133472180Y-57333662D02*
X133586466Y-57390805D01*
X133586466Y-57390805D02*
X133643609Y-57505091D01*
X133643609Y-57505091D02*
X133643609Y-58133662D01*
X133643609Y-57505091D02*
X133700751Y-57390805D01*
X133700751Y-57390805D02*
X133815037Y-57333662D01*
X133815037Y-57333662D02*
X133986466Y-57333662D01*
X133986466Y-57333662D02*
X134100751Y-57390805D01*
X134100751Y-57390805D02*
X134157894Y-57505091D01*
X134157894Y-57505091D02*
X134157894Y-58133662D01*
X136272180Y-58133662D02*
X135586466Y-58133662D01*
X135929323Y-58133662D02*
X135929323Y-56933662D01*
X135929323Y-56933662D02*
X135815037Y-57105091D01*
X135815037Y-57105091D02*
X135700752Y-57219377D01*
X135700752Y-57219377D02*
X135586466Y-57276520D01*
X137015037Y-56933662D02*
X137129323Y-56933662D01*
X137129323Y-56933662D02*
X137243609Y-56990805D01*
X137243609Y-56990805D02*
X137300752Y-57047948D01*
X137300752Y-57047948D02*
X137357894Y-57162234D01*
X137357894Y-57162234D02*
X137415037Y-57390805D01*
X137415037Y-57390805D02*
X137415037Y-57676520D01*
X137415037Y-57676520D02*
X137357894Y-57905091D01*
X137357894Y-57905091D02*
X137300752Y-58019377D01*
X137300752Y-58019377D02*
X137243609Y-58076520D01*
X137243609Y-58076520D02*
X137129323Y-58133662D01*
X137129323Y-58133662D02*
X137015037Y-58133662D01*
X137015037Y-58133662D02*
X136900752Y-58076520D01*
X136900752Y-58076520D02*
X136843609Y-58019377D01*
X136843609Y-58019377D02*
X136786466Y-57905091D01*
X136786466Y-57905091D02*
X136729323Y-57676520D01*
X136729323Y-57676520D02*
X136729323Y-57390805D01*
X136729323Y-57390805D02*
X136786466Y-57162234D01*
X136786466Y-57162234D02*
X136843609Y-57047948D01*
X136843609Y-57047948D02*
X136900752Y-56990805D01*
X136900752Y-56990805D02*
X137015037Y-56933662D01*
X138157894Y-56933662D02*
X138272180Y-56933662D01*
X138272180Y-56933662D02*
X138386466Y-56990805D01*
X138386466Y-56990805D02*
X138443609Y-57047948D01*
X138443609Y-57047948D02*
X138500751Y-57162234D01*
X138500751Y-57162234D02*
X138557894Y-57390805D01*
X138557894Y-57390805D02*
X138557894Y-57676520D01*
X138557894Y-57676520D02*
X138500751Y-57905091D01*
X138500751Y-57905091D02*
X138443609Y-58019377D01*
X138443609Y-58019377D02*
X138386466Y-58076520D01*
X138386466Y-58076520D02*
X138272180Y-58133662D01*
X138272180Y-58133662D02*
X138157894Y-58133662D01*
X138157894Y-58133662D02*
X138043609Y-58076520D01*
X138043609Y-58076520D02*
X137986466Y-58019377D01*
X137986466Y-58019377D02*
X137929323Y-57905091D01*
X137929323Y-57905091D02*
X137872180Y-57676520D01*
X137872180Y-57676520D02*
X137872180Y-57390805D01*
X137872180Y-57390805D02*
X137929323Y-57162234D01*
X137929323Y-57162234D02*
X137986466Y-57047948D01*
X137986466Y-57047948D02*
X138043609Y-56990805D01*
X138043609Y-56990805D02*
X138157894Y-56933662D01*
X139072180Y-58133662D02*
X139072180Y-57333662D01*
X139072180Y-57447948D02*
X139129323Y-57390805D01*
X139129323Y-57390805D02*
X139243608Y-57333662D01*
X139243608Y-57333662D02*
X139415037Y-57333662D01*
X139415037Y-57333662D02*
X139529323Y-57390805D01*
X139529323Y-57390805D02*
X139586466Y-57505091D01*
X139586466Y-57505091D02*
X139586466Y-58133662D01*
X139586466Y-57505091D02*
X139643608Y-57390805D01*
X139643608Y-57390805D02*
X139757894Y-57333662D01*
X139757894Y-57333662D02*
X139929323Y-57333662D01*
X139929323Y-57333662D02*
X140043608Y-57390805D01*
X140043608Y-57390805D02*
X140100751Y-57505091D01*
X140100751Y-57505091D02*
X140100751Y-58133662D01*
X141186466Y-58133662D02*
X141186466Y-57505091D01*
X141186466Y-57505091D02*
X141129323Y-57390805D01*
X141129323Y-57390805D02*
X141015037Y-57333662D01*
X141015037Y-57333662D02*
X140786466Y-57333662D01*
X140786466Y-57333662D02*
X140672180Y-57390805D01*
X141186466Y-58076520D02*
X141072180Y-58133662D01*
X141072180Y-58133662D02*
X140786466Y-58133662D01*
X140786466Y-58133662D02*
X140672180Y-58076520D01*
X140672180Y-58076520D02*
X140615037Y-57962234D01*
X140615037Y-57962234D02*
X140615037Y-57847948D01*
X140615037Y-57847948D02*
X140672180Y-57733662D01*
X140672180Y-57733662D02*
X140786466Y-57676520D01*
X140786466Y-57676520D02*
X141072180Y-57676520D01*
X141072180Y-57676520D02*
X141186466Y-57619377D01*
D11*
X136352493Y-74729819D02*
X136352493Y-75444104D01*
X136352493Y-75444104D02*
X136304874Y-75586961D01*
X136304874Y-75586961D02*
X136209636Y-75682200D01*
X136209636Y-75682200D02*
X136066779Y-75729819D01*
X136066779Y-75729819D02*
X135971541Y-75729819D01*
X137304874Y-75729819D02*
X136828684Y-75729819D01*
X136828684Y-75729819D02*
X136828684Y-74729819D01*
X138209636Y-75634580D02*
X138162017Y-75682200D01*
X138162017Y-75682200D02*
X138019160Y-75729819D01*
X138019160Y-75729819D02*
X137923922Y-75729819D01*
X137923922Y-75729819D02*
X137781065Y-75682200D01*
X137781065Y-75682200D02*
X137685827Y-75586961D01*
X137685827Y-75586961D02*
X137638208Y-75491723D01*
X137638208Y-75491723D02*
X137590589Y-75301247D01*
X137590589Y-75301247D02*
X137590589Y-75158390D01*
X137590589Y-75158390D02*
X137638208Y-74967914D01*
X137638208Y-74967914D02*
X137685827Y-74872676D01*
X137685827Y-74872676D02*
X137781065Y-74777438D01*
X137781065Y-74777438D02*
X137923922Y-74729819D01*
X137923922Y-74729819D02*
X138019160Y-74729819D01*
X138019160Y-74729819D02*
X138162017Y-74777438D01*
X138162017Y-74777438D02*
X138209636Y-74825057D01*
X138923922Y-74729819D02*
X138923922Y-75444104D01*
X138923922Y-75444104D02*
X138876303Y-75586961D01*
X138876303Y-75586961D02*
X138781065Y-75682200D01*
X138781065Y-75682200D02*
X138638208Y-75729819D01*
X138638208Y-75729819D02*
X138542970Y-75729819D01*
X139876303Y-75729819D02*
X139400113Y-75729819D01*
X139400113Y-75729819D02*
X139400113Y-74729819D01*
X140781065Y-75634580D02*
X140733446Y-75682200D01*
X140733446Y-75682200D02*
X140590589Y-75729819D01*
X140590589Y-75729819D02*
X140495351Y-75729819D01*
X140495351Y-75729819D02*
X140352494Y-75682200D01*
X140352494Y-75682200D02*
X140257256Y-75586961D01*
X140257256Y-75586961D02*
X140209637Y-75491723D01*
X140209637Y-75491723D02*
X140162018Y-75301247D01*
X140162018Y-75301247D02*
X140162018Y-75158390D01*
X140162018Y-75158390D02*
X140209637Y-74967914D01*
X140209637Y-74967914D02*
X140257256Y-74872676D01*
X140257256Y-74872676D02*
X140352494Y-74777438D01*
X140352494Y-74777438D02*
X140495351Y-74729819D01*
X140495351Y-74729819D02*
X140590589Y-74729819D01*
X140590589Y-74729819D02*
X140733446Y-74777438D01*
X140733446Y-74777438D02*
X140781065Y-74825057D01*
X141495351Y-74729819D02*
X141495351Y-75444104D01*
X141495351Y-75444104D02*
X141447732Y-75586961D01*
X141447732Y-75586961D02*
X141352494Y-75682200D01*
X141352494Y-75682200D02*
X141209637Y-75729819D01*
X141209637Y-75729819D02*
X141114399Y-75729819D01*
X142447732Y-75729819D02*
X141971542Y-75729819D01*
X141971542Y-75729819D02*
X141971542Y-74729819D01*
X143352494Y-75634580D02*
X143304875Y-75682200D01*
X143304875Y-75682200D02*
X143162018Y-75729819D01*
X143162018Y-75729819D02*
X143066780Y-75729819D01*
X143066780Y-75729819D02*
X142923923Y-75682200D01*
X142923923Y-75682200D02*
X142828685Y-75586961D01*
X142828685Y-75586961D02*
X142781066Y-75491723D01*
X142781066Y-75491723D02*
X142733447Y-75301247D01*
X142733447Y-75301247D02*
X142733447Y-75158390D01*
X142733447Y-75158390D02*
X142781066Y-74967914D01*
X142781066Y-74967914D02*
X142828685Y-74872676D01*
X142828685Y-74872676D02*
X142923923Y-74777438D01*
X142923923Y-74777438D02*
X143066780Y-74729819D01*
X143066780Y-74729819D02*
X143162018Y-74729819D01*
X143162018Y-74729819D02*
X143304875Y-74777438D01*
X143304875Y-74777438D02*
X143352494Y-74825057D01*
X144066780Y-74729819D02*
X144066780Y-75444104D01*
X144066780Y-75444104D02*
X144019161Y-75586961D01*
X144019161Y-75586961D02*
X143923923Y-75682200D01*
X143923923Y-75682200D02*
X143781066Y-75729819D01*
X143781066Y-75729819D02*
X143685828Y-75729819D01*
X145019161Y-75729819D02*
X144542971Y-75729819D01*
X144542971Y-75729819D02*
X144542971Y-74729819D01*
X145923923Y-75634580D02*
X145876304Y-75682200D01*
X145876304Y-75682200D02*
X145733447Y-75729819D01*
X145733447Y-75729819D02*
X145638209Y-75729819D01*
X145638209Y-75729819D02*
X145495352Y-75682200D01*
X145495352Y-75682200D02*
X145400114Y-75586961D01*
X145400114Y-75586961D02*
X145352495Y-75491723D01*
X145352495Y-75491723D02*
X145304876Y-75301247D01*
X145304876Y-75301247D02*
X145304876Y-75158390D01*
X145304876Y-75158390D02*
X145352495Y-74967914D01*
X145352495Y-74967914D02*
X145400114Y-74872676D01*
X145400114Y-74872676D02*
X145495352Y-74777438D01*
X145495352Y-74777438D02*
X145638209Y-74729819D01*
X145638209Y-74729819D02*
X145733447Y-74729819D01*
X145733447Y-74729819D02*
X145876304Y-74777438D01*
X145876304Y-74777438D02*
X145923923Y-74825057D01*
D12*
X174200863Y-92967600D02*
X176486578Y-92967600D01*
X175343720Y-94110457D02*
X175343720Y-91824742D01*
D11*
X111426666Y-65844009D02*
X111093333Y-65844009D01*
X111093333Y-66367819D02*
X111093333Y-65367819D01*
X111093333Y-65367819D02*
X111569523Y-65367819D01*
X112474285Y-66367819D02*
X111902857Y-66367819D01*
X112188571Y-66367819D02*
X112188571Y-65367819D01*
X112188571Y-65367819D02*
X112093333Y-65510676D01*
X112093333Y-65510676D02*
X111998095Y-65605914D01*
X111998095Y-65605914D02*
X111902857Y-65653533D01*
X173594819Y-70715094D02*
X172594819Y-70715094D01*
X172594819Y-70715094D02*
X172594819Y-70476999D01*
X172594819Y-70476999D02*
X172642438Y-70334142D01*
X172642438Y-70334142D02*
X172737676Y-70238904D01*
X172737676Y-70238904D02*
X172832914Y-70191285D01*
X172832914Y-70191285D02*
X173023390Y-70143666D01*
X173023390Y-70143666D02*
X173166247Y-70143666D01*
X173166247Y-70143666D02*
X173356723Y-70191285D01*
X173356723Y-70191285D02*
X173451961Y-70238904D01*
X173451961Y-70238904D02*
X173547200Y-70334142D01*
X173547200Y-70334142D02*
X173594819Y-70476999D01*
X173594819Y-70476999D02*
X173594819Y-70715094D01*
X173594819Y-69191285D02*
X173594819Y-69762713D01*
X173594819Y-69476999D02*
X172594819Y-69476999D01*
X172594819Y-69476999D02*
X172737676Y-69572237D01*
X172737676Y-69572237D02*
X172832914Y-69667475D01*
X172832914Y-69667475D02*
X172880533Y-69762713D01*
X177834819Y-72119857D02*
X177834819Y-72691285D01*
X177834819Y-72405571D02*
X176834819Y-72405571D01*
X176834819Y-72405571D02*
X176977676Y-72500809D01*
X176977676Y-72500809D02*
X177072914Y-72596047D01*
X177072914Y-72596047D02*
X177120533Y-72691285D01*
X177834819Y-71691285D02*
X176834819Y-71691285D01*
X176834819Y-71691285D02*
X177834819Y-71119857D01*
X177834819Y-71119857D02*
X176834819Y-71119857D01*
X177168152Y-70215095D02*
X177834819Y-70215095D01*
X176787200Y-70453190D02*
X177501485Y-70691285D01*
X177501485Y-70691285D02*
X177501485Y-70072238D01*
X177834819Y-69167476D02*
X177834819Y-69738904D01*
X177834819Y-69453190D02*
X176834819Y-69453190D01*
X176834819Y-69453190D02*
X176977676Y-69548428D01*
X176977676Y-69548428D02*
X177072914Y-69643666D01*
X177072914Y-69643666D02*
X177120533Y-69738904D01*
X177168152Y-68310333D02*
X177834819Y-68310333D01*
X176787200Y-68548428D02*
X177501485Y-68786523D01*
X177501485Y-68786523D02*
X177501485Y-68167476D01*
X177263390Y-67643666D02*
X177215771Y-67738904D01*
X177215771Y-67738904D02*
X177168152Y-67786523D01*
X177168152Y-67786523D02*
X177072914Y-67834142D01*
X177072914Y-67834142D02*
X177025295Y-67834142D01*
X177025295Y-67834142D02*
X176930057Y-67786523D01*
X176930057Y-67786523D02*
X176882438Y-67738904D01*
X176882438Y-67738904D02*
X176834819Y-67643666D01*
X176834819Y-67643666D02*
X176834819Y-67453190D01*
X176834819Y-67453190D02*
X176882438Y-67357952D01*
X176882438Y-67357952D02*
X176930057Y-67310333D01*
X176930057Y-67310333D02*
X177025295Y-67262714D01*
X177025295Y-67262714D02*
X177072914Y-67262714D01*
X177072914Y-67262714D02*
X177168152Y-67310333D01*
X177168152Y-67310333D02*
X177215771Y-67357952D01*
X177215771Y-67357952D02*
X177263390Y-67453190D01*
X177263390Y-67453190D02*
X177263390Y-67643666D01*
X177263390Y-67643666D02*
X177311009Y-67738904D01*
X177311009Y-67738904D02*
X177358628Y-67786523D01*
X177358628Y-67786523D02*
X177453866Y-67834142D01*
X177453866Y-67834142D02*
X177644342Y-67834142D01*
X177644342Y-67834142D02*
X177739580Y-67786523D01*
X177739580Y-67786523D02*
X177787200Y-67738904D01*
X177787200Y-67738904D02*
X177834819Y-67643666D01*
X177834819Y-67643666D02*
X177834819Y-67453190D01*
X177834819Y-67453190D02*
X177787200Y-67357952D01*
X177787200Y-67357952D02*
X177739580Y-67310333D01*
X177739580Y-67310333D02*
X177644342Y-67262714D01*
X177644342Y-67262714D02*
X177453866Y-67262714D01*
X177453866Y-67262714D02*
X177358628Y-67310333D01*
X177358628Y-67310333D02*
X177311009Y-67357952D01*
X177311009Y-67357952D02*
X177263390Y-67453190D01*
D12*
X124028571Y-100344742D02*
X124771428Y-100344742D01*
X124771428Y-100344742D02*
X124371428Y-100801885D01*
X124371428Y-100801885D02*
X124542857Y-100801885D01*
X124542857Y-100801885D02*
X124657143Y-100859028D01*
X124657143Y-100859028D02*
X124714285Y-100916171D01*
X124714285Y-100916171D02*
X124771428Y-101030457D01*
X124771428Y-101030457D02*
X124771428Y-101316171D01*
X124771428Y-101316171D02*
X124714285Y-101430457D01*
X124714285Y-101430457D02*
X124657143Y-101487600D01*
X124657143Y-101487600D02*
X124542857Y-101544742D01*
X124542857Y-101544742D02*
X124200000Y-101544742D01*
X124200000Y-101544742D02*
X124085714Y-101487600D01*
X124085714Y-101487600D02*
X124028571Y-101430457D01*
X126085714Y-101544742D02*
X126714286Y-100744742D01*
X126085714Y-100744742D02*
X126714286Y-101544742D01*
X128028572Y-101201885D02*
X128600001Y-101201885D01*
X127914286Y-101544742D02*
X128314286Y-100344742D01*
X128314286Y-100344742D02*
X128714286Y-101544742D01*
X129057143Y-101201885D02*
X129628572Y-101201885D01*
X128942857Y-101544742D02*
X129342857Y-100344742D01*
X129342857Y-100344742D02*
X129742857Y-101544742D01*
X130085714Y-101201885D02*
X130657143Y-101201885D01*
X129971428Y-101544742D02*
X130371428Y-100344742D01*
X130371428Y-100344742D02*
X130771428Y-101544742D01*
X132428571Y-102001885D02*
X132371428Y-101944742D01*
X132371428Y-101944742D02*
X132257142Y-101773314D01*
X132257142Y-101773314D02*
X132200000Y-101659028D01*
X132200000Y-101659028D02*
X132142857Y-101487600D01*
X132142857Y-101487600D02*
X132085714Y-101201885D01*
X132085714Y-101201885D02*
X132085714Y-100973314D01*
X132085714Y-100973314D02*
X132142857Y-100687600D01*
X132142857Y-100687600D02*
X132200000Y-100516171D01*
X132200000Y-100516171D02*
X132257142Y-100401885D01*
X132257142Y-100401885D02*
X132371428Y-100230457D01*
X132371428Y-100230457D02*
X132428571Y-100173314D01*
X132714285Y-101087600D02*
X132771428Y-101030457D01*
X132771428Y-101030457D02*
X132885714Y-100973314D01*
X132885714Y-100973314D02*
X133114285Y-101087600D01*
X133114285Y-101087600D02*
X133228571Y-101030457D01*
X133228571Y-101030457D02*
X133285714Y-100973314D01*
X134257143Y-100744742D02*
X134257143Y-101544742D01*
X133971428Y-100287600D02*
X133685714Y-101144742D01*
X133685714Y-101144742D02*
X134428571Y-101144742D01*
X134885714Y-101430457D02*
X134942857Y-101487600D01*
X134942857Y-101487600D02*
X134885714Y-101544742D01*
X134885714Y-101544742D02*
X134828571Y-101487600D01*
X134828571Y-101487600D02*
X134885714Y-101430457D01*
X134885714Y-101430457D02*
X134885714Y-101544742D01*
X136028571Y-100344742D02*
X135457143Y-100344742D01*
X135457143Y-100344742D02*
X135400000Y-100916171D01*
X135400000Y-100916171D02*
X135457143Y-100859028D01*
X135457143Y-100859028D02*
X135571429Y-100801885D01*
X135571429Y-100801885D02*
X135857143Y-100801885D01*
X135857143Y-100801885D02*
X135971429Y-100859028D01*
X135971429Y-100859028D02*
X136028571Y-100916171D01*
X136028571Y-100916171D02*
X136085714Y-101030457D01*
X136085714Y-101030457D02*
X136085714Y-101316171D01*
X136085714Y-101316171D02*
X136028571Y-101430457D01*
X136028571Y-101430457D02*
X135971429Y-101487600D01*
X135971429Y-101487600D02*
X135857143Y-101544742D01*
X135857143Y-101544742D02*
X135571429Y-101544742D01*
X135571429Y-101544742D02*
X135457143Y-101487600D01*
X135457143Y-101487600D02*
X135400000Y-101430457D01*
X136428571Y-100344742D02*
X136828571Y-101544742D01*
X136828571Y-101544742D02*
X137228571Y-100344742D01*
X137514285Y-102001885D02*
X137571428Y-101944742D01*
X137571428Y-101944742D02*
X137685714Y-101773314D01*
X137685714Y-101773314D02*
X137742857Y-101659028D01*
X137742857Y-101659028D02*
X137799999Y-101487600D01*
X137799999Y-101487600D02*
X137857142Y-101201885D01*
X137857142Y-101201885D02*
X137857142Y-100973314D01*
X137857142Y-100973314D02*
X137799999Y-100687600D01*
X137799999Y-100687600D02*
X137742857Y-100516171D01*
X137742857Y-100516171D02*
X137685714Y-100401885D01*
X137685714Y-100401885D02*
X137571428Y-100230457D01*
X137571428Y-100230457D02*
X137514285Y-100173314D01*
D13*
%TO.C,J1*%
X176590000Y-90357000D02*
X175260000Y-90357000D01*
X176590000Y-89027000D02*
X176590000Y-90357000D01*
X176590000Y-87757000D02*
X176590000Y-80077000D01*
X176590000Y-87757000D02*
X173930000Y-87757000D01*
X176590000Y-80077000D02*
X173930000Y-80077000D01*
X173930000Y-87757000D02*
X173930000Y-80077000D01*
D14*
%TO.C,F1*%
X105791000Y-92471700D02*
X109282174Y-92471700D01*
X111951826Y-92471700D02*
X115443000Y-92471700D01*
X115443000Y-92471700D02*
X115443000Y-67808300D01*
X105791000Y-67808300D02*
X105791000Y-92471700D01*
X109768119Y-67808300D02*
X105791000Y-67808300D01*
X115443000Y-67808300D02*
X111465881Y-67808300D01*
D13*
%TO.C,D1*%
X175260000Y-72747000D02*
X175260000Y-72097000D01*
X174140000Y-72097000D02*
X176380000Y-72097000D01*
X176380000Y-72097000D02*
X176380000Y-67857000D01*
X174140000Y-71497000D02*
X176380000Y-71497000D01*
X174140000Y-71377000D02*
X176380000Y-71377000D01*
X174140000Y-71257000D02*
X176380000Y-71257000D01*
X174140000Y-67857000D02*
X174140000Y-72097000D01*
X176380000Y-67857000D02*
X174140000Y-67857000D01*
X175260000Y-67207000D02*
X175260000Y-67857000D01*
D15*
%TO.C,3 x AAA (~4.5V)*%
X170874000Y-98695000D02*
X118374000Y-98695000D01*
X170874000Y-61195000D02*
X170874000Y-98695000D01*
X118374000Y-98695000D02*
X118374000Y-61195000D01*
X118374000Y-61195000D02*
X170874000Y-61195000D01*
X117874000Y-93345000D02*
X116874000Y-93345000D01*
X117874000Y-80645000D02*
X116874000Y-80645000D01*
X117874000Y-67945000D02*
X116874000Y-67945000D01*
X117374000Y-93845000D02*
X117374000Y-92845000D01*
X117374000Y-68445000D02*
X117374000Y-67445000D01*
%TD*%
M02*
