%TF.GenerationSoftware,KiCad,Pcbnew,7.0.7*%
%TF.CreationDate,2023-10-30T22:50:01-05:00*%
%TF.ProjectId,AAA Battery Board,41414120-4261-4747-9465-727920426f61,rev?*%
%TF.SameCoordinates,Original*%
%TF.FileFunction,Legend,Top*%
%TF.FilePolarity,Positive*%
%FSLAX46Y46*%
G04 Gerber Fmt 4.6, Leading zero omitted, Abs format (unit mm)*
G04 Created by KiCad (PCBNEW 7.0.7) date 2023-10-30 22:50:01*
%MOMM*%
%LPD*%
G01*
G04 APERTURE LIST*
%ADD10C,0.150000*%
%ADD11C,0.200000*%
%ADD12C,0.120000*%
%ADD13C,0.152400*%
%ADD14C,0.127000*%
G04 APERTURE END LIST*
D10*
X135544112Y-57639009D02*
X135210779Y-57639009D01*
X135210779Y-58162819D02*
X135210779Y-57162819D01*
X135210779Y-57162819D02*
X135686969Y-57162819D01*
X136591731Y-58162819D02*
X136020303Y-58162819D01*
X136306017Y-58162819D02*
X136306017Y-57162819D01*
X136306017Y-57162819D02*
X136210779Y-57305676D01*
X136210779Y-57305676D02*
X136115541Y-57400914D01*
X136115541Y-57400914D02*
X136020303Y-57448533D01*
X137020303Y-58067580D02*
X137067922Y-58115200D01*
X137067922Y-58115200D02*
X137020303Y-58162819D01*
X137020303Y-58162819D02*
X136972684Y-58115200D01*
X136972684Y-58115200D02*
X137020303Y-58067580D01*
X137020303Y-58067580D02*
X137020303Y-58162819D01*
X137020303Y-57543771D02*
X137067922Y-57591390D01*
X137067922Y-57591390D02*
X137020303Y-57639009D01*
X137020303Y-57639009D02*
X136972684Y-57591390D01*
X136972684Y-57591390D02*
X137020303Y-57543771D01*
X137020303Y-57543771D02*
X137020303Y-57639009D01*
X138734588Y-57162819D02*
X138258398Y-57162819D01*
X138258398Y-57162819D02*
X138210779Y-57639009D01*
X138210779Y-57639009D02*
X138258398Y-57591390D01*
X138258398Y-57591390D02*
X138353636Y-57543771D01*
X138353636Y-57543771D02*
X138591731Y-57543771D01*
X138591731Y-57543771D02*
X138686969Y-57591390D01*
X138686969Y-57591390D02*
X138734588Y-57639009D01*
X138734588Y-57639009D02*
X138782207Y-57734247D01*
X138782207Y-57734247D02*
X138782207Y-57972342D01*
X138782207Y-57972342D02*
X138734588Y-58067580D01*
X138734588Y-58067580D02*
X138686969Y-58115200D01*
X138686969Y-58115200D02*
X138591731Y-58162819D01*
X138591731Y-58162819D02*
X138353636Y-58162819D01*
X138353636Y-58162819D02*
X138258398Y-58115200D01*
X138258398Y-58115200D02*
X138210779Y-58067580D01*
X139210779Y-58162819D02*
X139210779Y-57496152D01*
X139210779Y-57591390D02*
X139258398Y-57543771D01*
X139258398Y-57543771D02*
X139353636Y-57496152D01*
X139353636Y-57496152D02*
X139496493Y-57496152D01*
X139496493Y-57496152D02*
X139591731Y-57543771D01*
X139591731Y-57543771D02*
X139639350Y-57639009D01*
X139639350Y-57639009D02*
X139639350Y-58162819D01*
X139639350Y-57639009D02*
X139686969Y-57543771D01*
X139686969Y-57543771D02*
X139782207Y-57496152D01*
X139782207Y-57496152D02*
X139925064Y-57496152D01*
X139925064Y-57496152D02*
X140020303Y-57543771D01*
X140020303Y-57543771D02*
X140067922Y-57639009D01*
X140067922Y-57639009D02*
X140067922Y-58162819D01*
X140544112Y-58162819D02*
X140544112Y-57496152D01*
X140544112Y-57591390D02*
X140591731Y-57543771D01*
X140591731Y-57543771D02*
X140686969Y-57496152D01*
X140686969Y-57496152D02*
X140829826Y-57496152D01*
X140829826Y-57496152D02*
X140925064Y-57543771D01*
X140925064Y-57543771D02*
X140972683Y-57639009D01*
X140972683Y-57639009D02*
X140972683Y-58162819D01*
X140972683Y-57639009D02*
X141020302Y-57543771D01*
X141020302Y-57543771D02*
X141115540Y-57496152D01*
X141115540Y-57496152D02*
X141258397Y-57496152D01*
X141258397Y-57496152D02*
X141353636Y-57543771D01*
X141353636Y-57543771D02*
X141401255Y-57639009D01*
X141401255Y-57639009D02*
X141401255Y-58162819D01*
X142544112Y-58162819D02*
X143067921Y-57496152D01*
X142544112Y-57496152D02*
X143067921Y-58162819D01*
X144163160Y-57258057D02*
X144210779Y-57210438D01*
X144210779Y-57210438D02*
X144306017Y-57162819D01*
X144306017Y-57162819D02*
X144544112Y-57162819D01*
X144544112Y-57162819D02*
X144639350Y-57210438D01*
X144639350Y-57210438D02*
X144686969Y-57258057D01*
X144686969Y-57258057D02*
X144734588Y-57353295D01*
X144734588Y-57353295D02*
X144734588Y-57448533D01*
X144734588Y-57448533D02*
X144686969Y-57591390D01*
X144686969Y-57591390D02*
X144115541Y-58162819D01*
X144115541Y-58162819D02*
X144734588Y-58162819D01*
X145353636Y-57162819D02*
X145448874Y-57162819D01*
X145448874Y-57162819D02*
X145544112Y-57210438D01*
X145544112Y-57210438D02*
X145591731Y-57258057D01*
X145591731Y-57258057D02*
X145639350Y-57353295D01*
X145639350Y-57353295D02*
X145686969Y-57543771D01*
X145686969Y-57543771D02*
X145686969Y-57781866D01*
X145686969Y-57781866D02*
X145639350Y-57972342D01*
X145639350Y-57972342D02*
X145591731Y-58067580D01*
X145591731Y-58067580D02*
X145544112Y-58115200D01*
X145544112Y-58115200D02*
X145448874Y-58162819D01*
X145448874Y-58162819D02*
X145353636Y-58162819D01*
X145353636Y-58162819D02*
X145258398Y-58115200D01*
X145258398Y-58115200D02*
X145210779Y-58067580D01*
X145210779Y-58067580D02*
X145163160Y-57972342D01*
X145163160Y-57972342D02*
X145115541Y-57781866D01*
X145115541Y-57781866D02*
X145115541Y-57543771D01*
X145115541Y-57543771D02*
X145163160Y-57353295D01*
X145163160Y-57353295D02*
X145210779Y-57258057D01*
X145210779Y-57258057D02*
X145258398Y-57210438D01*
X145258398Y-57210438D02*
X145353636Y-57162819D01*
X146115541Y-58162819D02*
X146115541Y-57496152D01*
X146115541Y-57591390D02*
X146163160Y-57543771D01*
X146163160Y-57543771D02*
X146258398Y-57496152D01*
X146258398Y-57496152D02*
X146401255Y-57496152D01*
X146401255Y-57496152D02*
X146496493Y-57543771D01*
X146496493Y-57543771D02*
X146544112Y-57639009D01*
X146544112Y-57639009D02*
X146544112Y-58162819D01*
X146544112Y-57639009D02*
X146591731Y-57543771D01*
X146591731Y-57543771D02*
X146686969Y-57496152D01*
X146686969Y-57496152D02*
X146829826Y-57496152D01*
X146829826Y-57496152D02*
X146925065Y-57543771D01*
X146925065Y-57543771D02*
X146972684Y-57639009D01*
X146972684Y-57639009D02*
X146972684Y-58162819D01*
X147448874Y-58162819D02*
X147448874Y-57496152D01*
X147448874Y-57591390D02*
X147496493Y-57543771D01*
X147496493Y-57543771D02*
X147591731Y-57496152D01*
X147591731Y-57496152D02*
X147734588Y-57496152D01*
X147734588Y-57496152D02*
X147829826Y-57543771D01*
X147829826Y-57543771D02*
X147877445Y-57639009D01*
X147877445Y-57639009D02*
X147877445Y-58162819D01*
X147877445Y-57639009D02*
X147925064Y-57543771D01*
X147925064Y-57543771D02*
X148020302Y-57496152D01*
X148020302Y-57496152D02*
X148163159Y-57496152D01*
X148163159Y-57496152D02*
X148258398Y-57543771D01*
X148258398Y-57543771D02*
X148306017Y-57639009D01*
X148306017Y-57639009D02*
X148306017Y-58162819D01*
X150067921Y-58162819D02*
X149496493Y-58162819D01*
X149782207Y-58162819D02*
X149782207Y-57162819D01*
X149782207Y-57162819D02*
X149686969Y-57305676D01*
X149686969Y-57305676D02*
X149591731Y-57400914D01*
X149591731Y-57400914D02*
X149496493Y-57448533D01*
X150686969Y-57162819D02*
X150782207Y-57162819D01*
X150782207Y-57162819D02*
X150877445Y-57210438D01*
X150877445Y-57210438D02*
X150925064Y-57258057D01*
X150925064Y-57258057D02*
X150972683Y-57353295D01*
X150972683Y-57353295D02*
X151020302Y-57543771D01*
X151020302Y-57543771D02*
X151020302Y-57781866D01*
X151020302Y-57781866D02*
X150972683Y-57972342D01*
X150972683Y-57972342D02*
X150925064Y-58067580D01*
X150925064Y-58067580D02*
X150877445Y-58115200D01*
X150877445Y-58115200D02*
X150782207Y-58162819D01*
X150782207Y-58162819D02*
X150686969Y-58162819D01*
X150686969Y-58162819D02*
X150591731Y-58115200D01*
X150591731Y-58115200D02*
X150544112Y-58067580D01*
X150544112Y-58067580D02*
X150496493Y-57972342D01*
X150496493Y-57972342D02*
X150448874Y-57781866D01*
X150448874Y-57781866D02*
X150448874Y-57543771D01*
X150448874Y-57543771D02*
X150496493Y-57353295D01*
X150496493Y-57353295D02*
X150544112Y-57258057D01*
X150544112Y-57258057D02*
X150591731Y-57210438D01*
X150591731Y-57210438D02*
X150686969Y-57162819D01*
X151639350Y-57162819D02*
X151734588Y-57162819D01*
X151734588Y-57162819D02*
X151829826Y-57210438D01*
X151829826Y-57210438D02*
X151877445Y-57258057D01*
X151877445Y-57258057D02*
X151925064Y-57353295D01*
X151925064Y-57353295D02*
X151972683Y-57543771D01*
X151972683Y-57543771D02*
X151972683Y-57781866D01*
X151972683Y-57781866D02*
X151925064Y-57972342D01*
X151925064Y-57972342D02*
X151877445Y-58067580D01*
X151877445Y-58067580D02*
X151829826Y-58115200D01*
X151829826Y-58115200D02*
X151734588Y-58162819D01*
X151734588Y-58162819D02*
X151639350Y-58162819D01*
X151639350Y-58162819D02*
X151544112Y-58115200D01*
X151544112Y-58115200D02*
X151496493Y-58067580D01*
X151496493Y-58067580D02*
X151448874Y-57972342D01*
X151448874Y-57972342D02*
X151401255Y-57781866D01*
X151401255Y-57781866D02*
X151401255Y-57543771D01*
X151401255Y-57543771D02*
X151448874Y-57353295D01*
X151448874Y-57353295D02*
X151496493Y-57258057D01*
X151496493Y-57258057D02*
X151544112Y-57210438D01*
X151544112Y-57210438D02*
X151639350Y-57162819D01*
X152401255Y-58162819D02*
X152401255Y-57496152D01*
X152401255Y-57591390D02*
X152448874Y-57543771D01*
X152448874Y-57543771D02*
X152544112Y-57496152D01*
X152544112Y-57496152D02*
X152686969Y-57496152D01*
X152686969Y-57496152D02*
X152782207Y-57543771D01*
X152782207Y-57543771D02*
X152829826Y-57639009D01*
X152829826Y-57639009D02*
X152829826Y-58162819D01*
X152829826Y-57639009D02*
X152877445Y-57543771D01*
X152877445Y-57543771D02*
X152972683Y-57496152D01*
X152972683Y-57496152D02*
X153115540Y-57496152D01*
X153115540Y-57496152D02*
X153210779Y-57543771D01*
X153210779Y-57543771D02*
X153258398Y-57639009D01*
X153258398Y-57639009D02*
X153258398Y-58162819D01*
X154163159Y-58162819D02*
X154163159Y-57639009D01*
X154163159Y-57639009D02*
X154115540Y-57543771D01*
X154115540Y-57543771D02*
X154020302Y-57496152D01*
X154020302Y-57496152D02*
X153829826Y-57496152D01*
X153829826Y-57496152D02*
X153734588Y-57543771D01*
X154163159Y-58115200D02*
X154067921Y-58162819D01*
X154067921Y-58162819D02*
X153829826Y-58162819D01*
X153829826Y-58162819D02*
X153734588Y-58115200D01*
X153734588Y-58115200D02*
X153686969Y-58019961D01*
X153686969Y-58019961D02*
X153686969Y-57924723D01*
X153686969Y-57924723D02*
X153734588Y-57829485D01*
X153734588Y-57829485D02*
X153829826Y-57781866D01*
X153829826Y-57781866D02*
X154067921Y-57781866D01*
X154067921Y-57781866D02*
X154163159Y-57734247D01*
D11*
X174200863Y-92967600D02*
X176486578Y-92967600D01*
X175343720Y-94110457D02*
X175343720Y-91824742D01*
D10*
X111426666Y-65844009D02*
X111093333Y-65844009D01*
X111093333Y-66367819D02*
X111093333Y-65367819D01*
X111093333Y-65367819D02*
X111569523Y-65367819D01*
X112474285Y-66367819D02*
X111902857Y-66367819D01*
X112188571Y-66367819D02*
X112188571Y-65367819D01*
X112188571Y-65367819D02*
X112093333Y-65510676D01*
X112093333Y-65510676D02*
X111998095Y-65605914D01*
X111998095Y-65605914D02*
X111902857Y-65653533D01*
X139200618Y-101562819D02*
X139819665Y-101562819D01*
X139819665Y-101562819D02*
X139486332Y-101943771D01*
X139486332Y-101943771D02*
X139629189Y-101943771D01*
X139629189Y-101943771D02*
X139724427Y-101991390D01*
X139724427Y-101991390D02*
X139772046Y-102039009D01*
X139772046Y-102039009D02*
X139819665Y-102134247D01*
X139819665Y-102134247D02*
X139819665Y-102372342D01*
X139819665Y-102372342D02*
X139772046Y-102467580D01*
X139772046Y-102467580D02*
X139724427Y-102515200D01*
X139724427Y-102515200D02*
X139629189Y-102562819D01*
X139629189Y-102562819D02*
X139343475Y-102562819D01*
X139343475Y-102562819D02*
X139248237Y-102515200D01*
X139248237Y-102515200D02*
X139200618Y-102467580D01*
X140914904Y-102562819D02*
X141438713Y-101896152D01*
X140914904Y-101896152D02*
X141438713Y-102562819D01*
X142533952Y-102277104D02*
X143010142Y-102277104D01*
X142438714Y-102562819D02*
X142772047Y-101562819D01*
X142772047Y-101562819D02*
X143105380Y-102562819D01*
X143391095Y-102277104D02*
X143867285Y-102277104D01*
X143295857Y-102562819D02*
X143629190Y-101562819D01*
X143629190Y-101562819D02*
X143962523Y-102562819D01*
X144248238Y-102277104D02*
X144724428Y-102277104D01*
X144153000Y-102562819D02*
X144486333Y-101562819D01*
X144486333Y-101562819D02*
X144819666Y-102562819D01*
X146200619Y-102943771D02*
X146153000Y-102896152D01*
X146153000Y-102896152D02*
X146057762Y-102753295D01*
X146057762Y-102753295D02*
X146010143Y-102658057D01*
X146010143Y-102658057D02*
X145962524Y-102515200D01*
X145962524Y-102515200D02*
X145914905Y-102277104D01*
X145914905Y-102277104D02*
X145914905Y-102086628D01*
X145914905Y-102086628D02*
X145962524Y-101848533D01*
X145962524Y-101848533D02*
X146010143Y-101705676D01*
X146010143Y-101705676D02*
X146057762Y-101610438D01*
X146057762Y-101610438D02*
X146153000Y-101467580D01*
X146153000Y-101467580D02*
X146200619Y-101419961D01*
X147010143Y-101896152D02*
X147010143Y-102562819D01*
X146772048Y-101515200D02*
X146533953Y-102229485D01*
X146533953Y-102229485D02*
X147153000Y-102229485D01*
X147533953Y-102467580D02*
X147581572Y-102515200D01*
X147581572Y-102515200D02*
X147533953Y-102562819D01*
X147533953Y-102562819D02*
X147486334Y-102515200D01*
X147486334Y-102515200D02*
X147533953Y-102467580D01*
X147533953Y-102467580D02*
X147533953Y-102562819D01*
X148486333Y-101562819D02*
X148010143Y-101562819D01*
X148010143Y-101562819D02*
X147962524Y-102039009D01*
X147962524Y-102039009D02*
X148010143Y-101991390D01*
X148010143Y-101991390D02*
X148105381Y-101943771D01*
X148105381Y-101943771D02*
X148343476Y-101943771D01*
X148343476Y-101943771D02*
X148438714Y-101991390D01*
X148438714Y-101991390D02*
X148486333Y-102039009D01*
X148486333Y-102039009D02*
X148533952Y-102134247D01*
X148533952Y-102134247D02*
X148533952Y-102372342D01*
X148533952Y-102372342D02*
X148486333Y-102467580D01*
X148486333Y-102467580D02*
X148438714Y-102515200D01*
X148438714Y-102515200D02*
X148343476Y-102562819D01*
X148343476Y-102562819D02*
X148105381Y-102562819D01*
X148105381Y-102562819D02*
X148010143Y-102515200D01*
X148010143Y-102515200D02*
X147962524Y-102467580D01*
X148819667Y-101562819D02*
X149153000Y-102562819D01*
X149153000Y-102562819D02*
X149486333Y-101562819D01*
X149724429Y-102943771D02*
X149772048Y-102896152D01*
X149772048Y-102896152D02*
X149867286Y-102753295D01*
X149867286Y-102753295D02*
X149914905Y-102658057D01*
X149914905Y-102658057D02*
X149962524Y-102515200D01*
X149962524Y-102515200D02*
X150010143Y-102277104D01*
X150010143Y-102277104D02*
X150010143Y-102086628D01*
X150010143Y-102086628D02*
X149962524Y-101848533D01*
X149962524Y-101848533D02*
X149914905Y-101705676D01*
X149914905Y-101705676D02*
X149867286Y-101610438D01*
X149867286Y-101610438D02*
X149772048Y-101467580D01*
X149772048Y-101467580D02*
X149724429Y-101419961D01*
D12*
%TO.C,J1*%
X176590000Y-90357000D02*
X175260000Y-90357000D01*
X176590000Y-89027000D02*
X176590000Y-90357000D01*
X176590000Y-87757000D02*
X176590000Y-80077000D01*
X176590000Y-87757000D02*
X173930000Y-87757000D01*
X176590000Y-80077000D02*
X173930000Y-80077000D01*
X173930000Y-87757000D02*
X173930000Y-80077000D01*
D13*
%TO.C,F1*%
X105791000Y-92471700D02*
X109282174Y-92471700D01*
X111951826Y-92471700D02*
X115443000Y-92471700D01*
X115443000Y-92471700D02*
X115443000Y-67808300D01*
X105791000Y-67808300D02*
X105791000Y-92471700D01*
X109768119Y-67808300D02*
X105791000Y-67808300D01*
X115443000Y-67808300D02*
X111465881Y-67808300D01*
D12*
%TO.C,D1*%
X173790000Y-72697000D02*
X173790000Y-67257000D01*
X173920000Y-72697000D02*
X173790000Y-72697000D01*
X176600000Y-72697000D02*
X176730000Y-72697000D01*
X176730000Y-72697000D02*
X176730000Y-67257000D01*
X173790000Y-71917000D02*
X176730000Y-71917000D01*
X173790000Y-71797000D02*
X176730000Y-71797000D01*
X173790000Y-71677000D02*
X176730000Y-71677000D01*
X173790000Y-67257000D02*
X173920000Y-67257000D01*
X176730000Y-67257000D02*
X176600000Y-67257000D01*
D14*
%TO.C,3 x AAA (4.5V)*%
X170874000Y-98695000D02*
X118374000Y-98695000D01*
X170874000Y-61195000D02*
X170874000Y-98695000D01*
X118374000Y-98695000D02*
X118374000Y-61195000D01*
X118374000Y-61195000D02*
X170874000Y-61195000D01*
X117874000Y-93345000D02*
X116874000Y-93345000D01*
X117874000Y-80645000D02*
X116874000Y-80645000D01*
X117874000Y-67945000D02*
X116874000Y-67945000D01*
X117374000Y-93845000D02*
X117374000Y-92845000D01*
X117374000Y-68445000D02*
X117374000Y-67445000D01*
%TD*%
M02*
