%TF.GenerationSoftware,KiCad,Pcbnew,8.0.6*%
%TF.CreationDate,2024-12-05T00:05:36-06:00*%
%TF.ProjectId,AAA Battery Board,41414120-4261-4747-9465-727920426f61,rev?*%
%TF.SameCoordinates,Original*%
%TF.FileFunction,Profile,NP*%
%FSLAX46Y46*%
G04 Gerber Fmt 4.6, Leading zero omitted, Abs format (unit mm)*
G04 Created by KiCad (PCBNEW 8.0.6) date 2024-12-05 00:05:36*
%MOMM*%
%LPD*%
G01*
G04 APERTURE LIST*
%TA.AperFunction,Profile*%
%ADD10C,0.100000*%
%TD*%
G04 APERTURE END LIST*
D10*
X146000000Y-99000000D02*
X146000000Y-101000000D01*
X115951000Y-101600000D02*
G75*
G02*
X112551000Y-101600000I-1700000J0D01*
G01*
X112551000Y-101600000D02*
G75*
G02*
X115951000Y-101600000I1700000J0D01*
G01*
X110490000Y-93980000D02*
X110490000Y-105537000D01*
X177214000Y-58498000D02*
G75*
G02*
X173814000Y-58498000I-1700000J0D01*
G01*
X173814000Y-58498000D02*
G75*
G02*
X177214000Y-58498000I1700000J0D01*
G01*
X143000000Y-61000000D02*
X146000000Y-61000000D01*
X105410000Y-93980000D02*
X110490000Y-93980000D01*
X110490000Y-54610000D02*
X110490000Y-66040000D01*
X179070000Y-105537000D02*
X179070000Y-54610000D01*
X146000000Y-105537000D02*
X143000000Y-105537000D01*
X179070000Y-54610000D02*
X146000000Y-54610000D01*
X143000000Y-101000000D02*
X143000000Y-99000000D01*
X146000000Y-105537000D02*
X179070000Y-105537000D01*
X143000000Y-99000000D02*
X146000000Y-99000000D01*
X115951000Y-58420000D02*
G75*
G02*
X112551000Y-58420000I-1700000J0D01*
G01*
X112551000Y-58420000D02*
G75*
G02*
X115951000Y-58420000I1700000J0D01*
G01*
X146000000Y-54610000D02*
X143000000Y-54610000D01*
X110490000Y-105537000D02*
X143000000Y-105537000D01*
X143000000Y-101000000D02*
X146000000Y-101000000D01*
X146000000Y-61000000D02*
X146000000Y-59000000D01*
X143000000Y-54610000D02*
X110490000Y-54610000D01*
X143000000Y-59000000D02*
X146000000Y-59000000D01*
X177214000Y-101551000D02*
G75*
G02*
X173814000Y-101551000I-1700000J0D01*
G01*
X173814000Y-101551000D02*
G75*
G02*
X177214000Y-101551000I1700000J0D01*
G01*
X105410000Y-66040000D02*
X105410000Y-93980000D01*
X110490000Y-66040000D02*
X105410000Y-66040000D01*
X143000000Y-59000000D02*
X143000000Y-61000000D01*
M02*
