%TF.GenerationSoftware,KiCad,Pcbnew,8.0.6*%
%TF.CreationDate,2024-12-05T00:05:36-06:00*%
%TF.ProjectId,AAA Battery Board,41414120-4261-4747-9465-727920426f61,rev?*%
%TF.SameCoordinates,Original*%
%TF.FileFunction,Legend,Top*%
%TF.FilePolarity,Positive*%
%FSLAX46Y46*%
G04 Gerber Fmt 4.6, Leading zero omitted, Abs format (unit mm)*
G04 Created by KiCad (PCBNEW 8.0.6) date 2024-12-05 00:05:36*
%MOMM*%
%LPD*%
G01*
G04 APERTURE LIST*
%ADD10C,0.240000*%
%ADD11C,0.150000*%
%ADD12C,0.200000*%
%ADD13C,0.152400*%
%ADD14C,0.120000*%
%ADD15C,0.127000*%
G04 APERTURE END LIST*
D10*
X118843608Y-56712091D02*
X118443608Y-56712091D01*
X118443608Y-57340662D02*
X118443608Y-56140662D01*
X118443608Y-56140662D02*
X119015036Y-56140662D01*
X120100750Y-57340662D02*
X119415036Y-57340662D01*
X119757893Y-57340662D02*
X119757893Y-56140662D01*
X119757893Y-56140662D02*
X119643607Y-56312091D01*
X119643607Y-56312091D02*
X119529322Y-56426377D01*
X119529322Y-56426377D02*
X119415036Y-56483520D01*
X120615036Y-57226377D02*
X120672179Y-57283520D01*
X120672179Y-57283520D02*
X120615036Y-57340662D01*
X120615036Y-57340662D02*
X120557893Y-57283520D01*
X120557893Y-57283520D02*
X120615036Y-57226377D01*
X120615036Y-57226377D02*
X120615036Y-57340662D01*
X120615036Y-56597805D02*
X120672179Y-56654948D01*
X120672179Y-56654948D02*
X120615036Y-56712091D01*
X120615036Y-56712091D02*
X120557893Y-56654948D01*
X120557893Y-56654948D02*
X120615036Y-56597805D01*
X120615036Y-56597805D02*
X120615036Y-56712091D01*
X122672179Y-56140662D02*
X122100751Y-56140662D01*
X122100751Y-56140662D02*
X122043608Y-56712091D01*
X122043608Y-56712091D02*
X122100751Y-56654948D01*
X122100751Y-56654948D02*
X122215037Y-56597805D01*
X122215037Y-56597805D02*
X122500751Y-56597805D01*
X122500751Y-56597805D02*
X122615037Y-56654948D01*
X122615037Y-56654948D02*
X122672179Y-56712091D01*
X122672179Y-56712091D02*
X122729322Y-56826377D01*
X122729322Y-56826377D02*
X122729322Y-57112091D01*
X122729322Y-57112091D02*
X122672179Y-57226377D01*
X122672179Y-57226377D02*
X122615037Y-57283520D01*
X122615037Y-57283520D02*
X122500751Y-57340662D01*
X122500751Y-57340662D02*
X122215037Y-57340662D01*
X122215037Y-57340662D02*
X122100751Y-57283520D01*
X122100751Y-57283520D02*
X122043608Y-57226377D01*
X123243608Y-57340662D02*
X123243608Y-56540662D01*
X123243608Y-56654948D02*
X123300751Y-56597805D01*
X123300751Y-56597805D02*
X123415036Y-56540662D01*
X123415036Y-56540662D02*
X123586465Y-56540662D01*
X123586465Y-56540662D02*
X123700751Y-56597805D01*
X123700751Y-56597805D02*
X123757894Y-56712091D01*
X123757894Y-56712091D02*
X123757894Y-57340662D01*
X123757894Y-56712091D02*
X123815036Y-56597805D01*
X123815036Y-56597805D02*
X123929322Y-56540662D01*
X123929322Y-56540662D02*
X124100751Y-56540662D01*
X124100751Y-56540662D02*
X124215036Y-56597805D01*
X124215036Y-56597805D02*
X124272179Y-56712091D01*
X124272179Y-56712091D02*
X124272179Y-57340662D01*
X124843608Y-57340662D02*
X124843608Y-56540662D01*
X124843608Y-56654948D02*
X124900751Y-56597805D01*
X124900751Y-56597805D02*
X125015036Y-56540662D01*
X125015036Y-56540662D02*
X125186465Y-56540662D01*
X125186465Y-56540662D02*
X125300751Y-56597805D01*
X125300751Y-56597805D02*
X125357894Y-56712091D01*
X125357894Y-56712091D02*
X125357894Y-57340662D01*
X125357894Y-56712091D02*
X125415036Y-56597805D01*
X125415036Y-56597805D02*
X125529322Y-56540662D01*
X125529322Y-56540662D02*
X125700751Y-56540662D01*
X125700751Y-56540662D02*
X125815036Y-56597805D01*
X125815036Y-56597805D02*
X125872179Y-56712091D01*
X125872179Y-56712091D02*
X125872179Y-57340662D01*
X127243608Y-57340662D02*
X127872180Y-56540662D01*
X127243608Y-56540662D02*
X127872180Y-57340662D01*
X129186466Y-56254948D02*
X129243609Y-56197805D01*
X129243609Y-56197805D02*
X129357895Y-56140662D01*
X129357895Y-56140662D02*
X129643609Y-56140662D01*
X129643609Y-56140662D02*
X129757895Y-56197805D01*
X129757895Y-56197805D02*
X129815037Y-56254948D01*
X129815037Y-56254948D02*
X129872180Y-56369234D01*
X129872180Y-56369234D02*
X129872180Y-56483520D01*
X129872180Y-56483520D02*
X129815037Y-56654948D01*
X129815037Y-56654948D02*
X129129323Y-57340662D01*
X129129323Y-57340662D02*
X129872180Y-57340662D01*
X130615037Y-56140662D02*
X130729323Y-56140662D01*
X130729323Y-56140662D02*
X130843609Y-56197805D01*
X130843609Y-56197805D02*
X130900752Y-56254948D01*
X130900752Y-56254948D02*
X130957894Y-56369234D01*
X130957894Y-56369234D02*
X131015037Y-56597805D01*
X131015037Y-56597805D02*
X131015037Y-56883520D01*
X131015037Y-56883520D02*
X130957894Y-57112091D01*
X130957894Y-57112091D02*
X130900752Y-57226377D01*
X130900752Y-57226377D02*
X130843609Y-57283520D01*
X130843609Y-57283520D02*
X130729323Y-57340662D01*
X130729323Y-57340662D02*
X130615037Y-57340662D01*
X130615037Y-57340662D02*
X130500752Y-57283520D01*
X130500752Y-57283520D02*
X130443609Y-57226377D01*
X130443609Y-57226377D02*
X130386466Y-57112091D01*
X130386466Y-57112091D02*
X130329323Y-56883520D01*
X130329323Y-56883520D02*
X130329323Y-56597805D01*
X130329323Y-56597805D02*
X130386466Y-56369234D01*
X130386466Y-56369234D02*
X130443609Y-56254948D01*
X130443609Y-56254948D02*
X130500752Y-56197805D01*
X130500752Y-56197805D02*
X130615037Y-56140662D01*
X131529323Y-57340662D02*
X131529323Y-56540662D01*
X131529323Y-56654948D02*
X131586466Y-56597805D01*
X131586466Y-56597805D02*
X131700751Y-56540662D01*
X131700751Y-56540662D02*
X131872180Y-56540662D01*
X131872180Y-56540662D02*
X131986466Y-56597805D01*
X131986466Y-56597805D02*
X132043609Y-56712091D01*
X132043609Y-56712091D02*
X132043609Y-57340662D01*
X132043609Y-56712091D02*
X132100751Y-56597805D01*
X132100751Y-56597805D02*
X132215037Y-56540662D01*
X132215037Y-56540662D02*
X132386466Y-56540662D01*
X132386466Y-56540662D02*
X132500751Y-56597805D01*
X132500751Y-56597805D02*
X132557894Y-56712091D01*
X132557894Y-56712091D02*
X132557894Y-57340662D01*
X133129323Y-57340662D02*
X133129323Y-56540662D01*
X133129323Y-56654948D02*
X133186466Y-56597805D01*
X133186466Y-56597805D02*
X133300751Y-56540662D01*
X133300751Y-56540662D02*
X133472180Y-56540662D01*
X133472180Y-56540662D02*
X133586466Y-56597805D01*
X133586466Y-56597805D02*
X133643609Y-56712091D01*
X133643609Y-56712091D02*
X133643609Y-57340662D01*
X133643609Y-56712091D02*
X133700751Y-56597805D01*
X133700751Y-56597805D02*
X133815037Y-56540662D01*
X133815037Y-56540662D02*
X133986466Y-56540662D01*
X133986466Y-56540662D02*
X134100751Y-56597805D01*
X134100751Y-56597805D02*
X134157894Y-56712091D01*
X134157894Y-56712091D02*
X134157894Y-57340662D01*
X136272180Y-57340662D02*
X135586466Y-57340662D01*
X135929323Y-57340662D02*
X135929323Y-56140662D01*
X135929323Y-56140662D02*
X135815037Y-56312091D01*
X135815037Y-56312091D02*
X135700752Y-56426377D01*
X135700752Y-56426377D02*
X135586466Y-56483520D01*
X137015037Y-56140662D02*
X137129323Y-56140662D01*
X137129323Y-56140662D02*
X137243609Y-56197805D01*
X137243609Y-56197805D02*
X137300752Y-56254948D01*
X137300752Y-56254948D02*
X137357894Y-56369234D01*
X137357894Y-56369234D02*
X137415037Y-56597805D01*
X137415037Y-56597805D02*
X137415037Y-56883520D01*
X137415037Y-56883520D02*
X137357894Y-57112091D01*
X137357894Y-57112091D02*
X137300752Y-57226377D01*
X137300752Y-57226377D02*
X137243609Y-57283520D01*
X137243609Y-57283520D02*
X137129323Y-57340662D01*
X137129323Y-57340662D02*
X137015037Y-57340662D01*
X137015037Y-57340662D02*
X136900752Y-57283520D01*
X136900752Y-57283520D02*
X136843609Y-57226377D01*
X136843609Y-57226377D02*
X136786466Y-57112091D01*
X136786466Y-57112091D02*
X136729323Y-56883520D01*
X136729323Y-56883520D02*
X136729323Y-56597805D01*
X136729323Y-56597805D02*
X136786466Y-56369234D01*
X136786466Y-56369234D02*
X136843609Y-56254948D01*
X136843609Y-56254948D02*
X136900752Y-56197805D01*
X136900752Y-56197805D02*
X137015037Y-56140662D01*
X138157894Y-56140662D02*
X138272180Y-56140662D01*
X138272180Y-56140662D02*
X138386466Y-56197805D01*
X138386466Y-56197805D02*
X138443609Y-56254948D01*
X138443609Y-56254948D02*
X138500751Y-56369234D01*
X138500751Y-56369234D02*
X138557894Y-56597805D01*
X138557894Y-56597805D02*
X138557894Y-56883520D01*
X138557894Y-56883520D02*
X138500751Y-57112091D01*
X138500751Y-57112091D02*
X138443609Y-57226377D01*
X138443609Y-57226377D02*
X138386466Y-57283520D01*
X138386466Y-57283520D02*
X138272180Y-57340662D01*
X138272180Y-57340662D02*
X138157894Y-57340662D01*
X138157894Y-57340662D02*
X138043609Y-57283520D01*
X138043609Y-57283520D02*
X137986466Y-57226377D01*
X137986466Y-57226377D02*
X137929323Y-57112091D01*
X137929323Y-57112091D02*
X137872180Y-56883520D01*
X137872180Y-56883520D02*
X137872180Y-56597805D01*
X137872180Y-56597805D02*
X137929323Y-56369234D01*
X137929323Y-56369234D02*
X137986466Y-56254948D01*
X137986466Y-56254948D02*
X138043609Y-56197805D01*
X138043609Y-56197805D02*
X138157894Y-56140662D01*
X139072180Y-57340662D02*
X139072180Y-56540662D01*
X139072180Y-56654948D02*
X139129323Y-56597805D01*
X139129323Y-56597805D02*
X139243608Y-56540662D01*
X139243608Y-56540662D02*
X139415037Y-56540662D01*
X139415037Y-56540662D02*
X139529323Y-56597805D01*
X139529323Y-56597805D02*
X139586466Y-56712091D01*
X139586466Y-56712091D02*
X139586466Y-57340662D01*
X139586466Y-56712091D02*
X139643608Y-56597805D01*
X139643608Y-56597805D02*
X139757894Y-56540662D01*
X139757894Y-56540662D02*
X139929323Y-56540662D01*
X139929323Y-56540662D02*
X140043608Y-56597805D01*
X140043608Y-56597805D02*
X140100751Y-56712091D01*
X140100751Y-56712091D02*
X140100751Y-57340662D01*
X140615037Y-56997805D02*
X141186466Y-56997805D01*
X140500751Y-57340662D02*
X140900751Y-56140662D01*
X140900751Y-56140662D02*
X141300751Y-57340662D01*
D11*
X136352493Y-74729819D02*
X136352493Y-75444104D01*
X136352493Y-75444104D02*
X136304874Y-75586961D01*
X136304874Y-75586961D02*
X136209636Y-75682200D01*
X136209636Y-75682200D02*
X136066779Y-75729819D01*
X136066779Y-75729819D02*
X135971541Y-75729819D01*
X137304874Y-75729819D02*
X136828684Y-75729819D01*
X136828684Y-75729819D02*
X136828684Y-74729819D01*
X138209636Y-75634580D02*
X138162017Y-75682200D01*
X138162017Y-75682200D02*
X138019160Y-75729819D01*
X138019160Y-75729819D02*
X137923922Y-75729819D01*
X137923922Y-75729819D02*
X137781065Y-75682200D01*
X137781065Y-75682200D02*
X137685827Y-75586961D01*
X137685827Y-75586961D02*
X137638208Y-75491723D01*
X137638208Y-75491723D02*
X137590589Y-75301247D01*
X137590589Y-75301247D02*
X137590589Y-75158390D01*
X137590589Y-75158390D02*
X137638208Y-74967914D01*
X137638208Y-74967914D02*
X137685827Y-74872676D01*
X137685827Y-74872676D02*
X137781065Y-74777438D01*
X137781065Y-74777438D02*
X137923922Y-74729819D01*
X137923922Y-74729819D02*
X138019160Y-74729819D01*
X138019160Y-74729819D02*
X138162017Y-74777438D01*
X138162017Y-74777438D02*
X138209636Y-74825057D01*
X138923922Y-74729819D02*
X138923922Y-75444104D01*
X138923922Y-75444104D02*
X138876303Y-75586961D01*
X138876303Y-75586961D02*
X138781065Y-75682200D01*
X138781065Y-75682200D02*
X138638208Y-75729819D01*
X138638208Y-75729819D02*
X138542970Y-75729819D01*
X139876303Y-75729819D02*
X139400113Y-75729819D01*
X139400113Y-75729819D02*
X139400113Y-74729819D01*
X140781065Y-75634580D02*
X140733446Y-75682200D01*
X140733446Y-75682200D02*
X140590589Y-75729819D01*
X140590589Y-75729819D02*
X140495351Y-75729819D01*
X140495351Y-75729819D02*
X140352494Y-75682200D01*
X140352494Y-75682200D02*
X140257256Y-75586961D01*
X140257256Y-75586961D02*
X140209637Y-75491723D01*
X140209637Y-75491723D02*
X140162018Y-75301247D01*
X140162018Y-75301247D02*
X140162018Y-75158390D01*
X140162018Y-75158390D02*
X140209637Y-74967914D01*
X140209637Y-74967914D02*
X140257256Y-74872676D01*
X140257256Y-74872676D02*
X140352494Y-74777438D01*
X140352494Y-74777438D02*
X140495351Y-74729819D01*
X140495351Y-74729819D02*
X140590589Y-74729819D01*
X140590589Y-74729819D02*
X140733446Y-74777438D01*
X140733446Y-74777438D02*
X140781065Y-74825057D01*
X141495351Y-74729819D02*
X141495351Y-75444104D01*
X141495351Y-75444104D02*
X141447732Y-75586961D01*
X141447732Y-75586961D02*
X141352494Y-75682200D01*
X141352494Y-75682200D02*
X141209637Y-75729819D01*
X141209637Y-75729819D02*
X141114399Y-75729819D01*
X142447732Y-75729819D02*
X141971542Y-75729819D01*
X141971542Y-75729819D02*
X141971542Y-74729819D01*
X143352494Y-75634580D02*
X143304875Y-75682200D01*
X143304875Y-75682200D02*
X143162018Y-75729819D01*
X143162018Y-75729819D02*
X143066780Y-75729819D01*
X143066780Y-75729819D02*
X142923923Y-75682200D01*
X142923923Y-75682200D02*
X142828685Y-75586961D01*
X142828685Y-75586961D02*
X142781066Y-75491723D01*
X142781066Y-75491723D02*
X142733447Y-75301247D01*
X142733447Y-75301247D02*
X142733447Y-75158390D01*
X142733447Y-75158390D02*
X142781066Y-74967914D01*
X142781066Y-74967914D02*
X142828685Y-74872676D01*
X142828685Y-74872676D02*
X142923923Y-74777438D01*
X142923923Y-74777438D02*
X143066780Y-74729819D01*
X143066780Y-74729819D02*
X143162018Y-74729819D01*
X143162018Y-74729819D02*
X143304875Y-74777438D01*
X143304875Y-74777438D02*
X143352494Y-74825057D01*
X144066780Y-74729819D02*
X144066780Y-75444104D01*
X144066780Y-75444104D02*
X144019161Y-75586961D01*
X144019161Y-75586961D02*
X143923923Y-75682200D01*
X143923923Y-75682200D02*
X143781066Y-75729819D01*
X143781066Y-75729819D02*
X143685828Y-75729819D01*
X145019161Y-75729819D02*
X144542971Y-75729819D01*
X144542971Y-75729819D02*
X144542971Y-74729819D01*
X145923923Y-75634580D02*
X145876304Y-75682200D01*
X145876304Y-75682200D02*
X145733447Y-75729819D01*
X145733447Y-75729819D02*
X145638209Y-75729819D01*
X145638209Y-75729819D02*
X145495352Y-75682200D01*
X145495352Y-75682200D02*
X145400114Y-75586961D01*
X145400114Y-75586961D02*
X145352495Y-75491723D01*
X145352495Y-75491723D02*
X145304876Y-75301247D01*
X145304876Y-75301247D02*
X145304876Y-75158390D01*
X145304876Y-75158390D02*
X145352495Y-74967914D01*
X145352495Y-74967914D02*
X145400114Y-74872676D01*
X145400114Y-74872676D02*
X145495352Y-74777438D01*
X145495352Y-74777438D02*
X145638209Y-74729819D01*
X145638209Y-74729819D02*
X145733447Y-74729819D01*
X145733447Y-74729819D02*
X145876304Y-74777438D01*
X145876304Y-74777438D02*
X145923923Y-74825057D01*
X137241541Y-78369819D02*
X137479636Y-79369819D01*
X137479636Y-79369819D02*
X137670112Y-78655533D01*
X137670112Y-78655533D02*
X137860588Y-79369819D01*
X137860588Y-79369819D02*
X138098684Y-78369819D01*
X138908207Y-79369819D02*
X138908207Y-78846009D01*
X138908207Y-78846009D02*
X138860588Y-78750771D01*
X138860588Y-78750771D02*
X138765350Y-78703152D01*
X138765350Y-78703152D02*
X138574874Y-78703152D01*
X138574874Y-78703152D02*
X138479636Y-78750771D01*
X138908207Y-79322200D02*
X138812969Y-79369819D01*
X138812969Y-79369819D02*
X138574874Y-79369819D01*
X138574874Y-79369819D02*
X138479636Y-79322200D01*
X138479636Y-79322200D02*
X138432017Y-79226961D01*
X138432017Y-79226961D02*
X138432017Y-79131723D01*
X138432017Y-79131723D02*
X138479636Y-79036485D01*
X138479636Y-79036485D02*
X138574874Y-78988866D01*
X138574874Y-78988866D02*
X138812969Y-78988866D01*
X138812969Y-78988866D02*
X138908207Y-78941247D01*
X139289160Y-78703152D02*
X139527255Y-79369819D01*
X139765350Y-78703152D02*
X139527255Y-79369819D01*
X139527255Y-79369819D02*
X139432017Y-79607914D01*
X139432017Y-79607914D02*
X139384398Y-79655533D01*
X139384398Y-79655533D02*
X139289160Y-79703152D01*
X140051065Y-78369819D02*
X140289160Y-79369819D01*
X140289160Y-79369819D02*
X140479636Y-78655533D01*
X140479636Y-78655533D02*
X140670112Y-79369819D01*
X140670112Y-79369819D02*
X140908208Y-78369819D01*
X141717731Y-79369819D02*
X141717731Y-78846009D01*
X141717731Y-78846009D02*
X141670112Y-78750771D01*
X141670112Y-78750771D02*
X141574874Y-78703152D01*
X141574874Y-78703152D02*
X141384398Y-78703152D01*
X141384398Y-78703152D02*
X141289160Y-78750771D01*
X141717731Y-79322200D02*
X141622493Y-79369819D01*
X141622493Y-79369819D02*
X141384398Y-79369819D01*
X141384398Y-79369819D02*
X141289160Y-79322200D01*
X141289160Y-79322200D02*
X141241541Y-79226961D01*
X141241541Y-79226961D02*
X141241541Y-79131723D01*
X141241541Y-79131723D02*
X141289160Y-79036485D01*
X141289160Y-79036485D02*
X141384398Y-78988866D01*
X141384398Y-78988866D02*
X141622493Y-78988866D01*
X141622493Y-78988866D02*
X141717731Y-78941247D01*
X142098684Y-78703152D02*
X142336779Y-79369819D01*
X142574874Y-78703152D02*
X142336779Y-79369819D01*
X142336779Y-79369819D02*
X142241541Y-79607914D01*
X142241541Y-79607914D02*
X142193922Y-79655533D01*
X142193922Y-79655533D02*
X142098684Y-79703152D01*
X142860589Y-78369819D02*
X143098684Y-79369819D01*
X143098684Y-79369819D02*
X143289160Y-78655533D01*
X143289160Y-78655533D02*
X143479636Y-79369819D01*
X143479636Y-79369819D02*
X143717732Y-78369819D01*
X144527255Y-79369819D02*
X144527255Y-78846009D01*
X144527255Y-78846009D02*
X144479636Y-78750771D01*
X144479636Y-78750771D02*
X144384398Y-78703152D01*
X144384398Y-78703152D02*
X144193922Y-78703152D01*
X144193922Y-78703152D02*
X144098684Y-78750771D01*
X144527255Y-79322200D02*
X144432017Y-79369819D01*
X144432017Y-79369819D02*
X144193922Y-79369819D01*
X144193922Y-79369819D02*
X144098684Y-79322200D01*
X144098684Y-79322200D02*
X144051065Y-79226961D01*
X144051065Y-79226961D02*
X144051065Y-79131723D01*
X144051065Y-79131723D02*
X144098684Y-79036485D01*
X144098684Y-79036485D02*
X144193922Y-78988866D01*
X144193922Y-78988866D02*
X144432017Y-78988866D01*
X144432017Y-78988866D02*
X144527255Y-78941247D01*
X144908208Y-78703152D02*
X145146303Y-79369819D01*
X145384398Y-78703152D02*
X145146303Y-79369819D01*
X145146303Y-79369819D02*
X145051065Y-79607914D01*
X145051065Y-79607914D02*
X145003446Y-79655533D01*
X145003446Y-79655533D02*
X144908208Y-79703152D01*
D12*
X174200863Y-92967600D02*
X176486578Y-92967600D01*
X175343720Y-94110457D02*
X175343720Y-91824742D01*
D11*
X110931009Y-80238758D02*
X110931009Y-80572091D01*
X111454819Y-80572091D02*
X110454819Y-80572091D01*
X110454819Y-80572091D02*
X110454819Y-80095901D01*
X111454819Y-79191139D02*
X111454819Y-79762567D01*
X111454819Y-79476853D02*
X110454819Y-79476853D01*
X110454819Y-79476853D02*
X110597676Y-79572091D01*
X110597676Y-79572091D02*
X110692914Y-79667329D01*
X110692914Y-79667329D02*
X110740533Y-79762567D01*
X110454819Y-93126124D02*
X110692914Y-93126124D01*
X110597676Y-93364219D02*
X110692914Y-93126124D01*
X110692914Y-93126124D02*
X110597676Y-92888029D01*
X110883390Y-93268981D02*
X110692914Y-93126124D01*
X110692914Y-93126124D02*
X110883390Y-92983267D01*
X112314009Y-95098758D02*
X112314009Y-95432091D01*
X112837819Y-95432091D02*
X111837819Y-95432091D01*
X111837819Y-95432091D02*
X111837819Y-94955901D01*
X112837819Y-94051139D02*
X112837819Y-94622567D01*
X112837819Y-94336853D02*
X111837819Y-94336853D01*
X111837819Y-94336853D02*
X111980676Y-94432091D01*
X111980676Y-94432091D02*
X112075914Y-94527329D01*
X112075914Y-94527329D02*
X112123533Y-94622567D01*
X110454819Y-93126124D02*
X110692914Y-93126124D01*
X110597676Y-93364219D02*
X110692914Y-93126124D01*
X110692914Y-93126124D02*
X110597676Y-92888029D01*
X110883390Y-93268981D02*
X110692914Y-93126124D01*
X110692914Y-93126124D02*
X110883390Y-92983267D01*
X154166666Y-56454819D02*
X154166666Y-57169104D01*
X154166666Y-57169104D02*
X154119047Y-57311961D01*
X154119047Y-57311961D02*
X154023809Y-57407200D01*
X154023809Y-57407200D02*
X153880952Y-57454819D01*
X153880952Y-57454819D02*
X153785714Y-57454819D01*
X154642857Y-57454819D02*
X154642857Y-56454819D01*
X154642857Y-56454819D02*
X155023809Y-56454819D01*
X155023809Y-56454819D02*
X155119047Y-56502438D01*
X155119047Y-56502438D02*
X155166666Y-56550057D01*
X155166666Y-56550057D02*
X155214285Y-56645295D01*
X155214285Y-56645295D02*
X155214285Y-56788152D01*
X155214285Y-56788152D02*
X155166666Y-56883390D01*
X155166666Y-56883390D02*
X155119047Y-56931009D01*
X155119047Y-56931009D02*
X155023809Y-56978628D01*
X155023809Y-56978628D02*
X154642857Y-56978628D01*
X156166666Y-57454819D02*
X155595238Y-57454819D01*
X155880952Y-57454819D02*
X155880952Y-56454819D01*
X155880952Y-56454819D02*
X155785714Y-56597676D01*
X155785714Y-56597676D02*
X155690476Y-56692914D01*
X155690476Y-56692914D02*
X155595238Y-56740533D01*
X161402380Y-57454819D02*
X161402380Y-56454819D01*
X161402380Y-56454819D02*
X161640475Y-56454819D01*
X161640475Y-56454819D02*
X161783332Y-56502438D01*
X161783332Y-56502438D02*
X161878570Y-56597676D01*
X161878570Y-56597676D02*
X161926189Y-56692914D01*
X161926189Y-56692914D02*
X161973808Y-56883390D01*
X161973808Y-56883390D02*
X161973808Y-57026247D01*
X161973808Y-57026247D02*
X161926189Y-57216723D01*
X161926189Y-57216723D02*
X161878570Y-57311961D01*
X161878570Y-57311961D02*
X161783332Y-57407200D01*
X161783332Y-57407200D02*
X161640475Y-57454819D01*
X161640475Y-57454819D02*
X161402380Y-57454819D01*
X162402380Y-57454819D02*
X162402380Y-56788152D01*
X162402380Y-56454819D02*
X162354761Y-56502438D01*
X162354761Y-56502438D02*
X162402380Y-56550057D01*
X162402380Y-56550057D02*
X162449999Y-56502438D01*
X162449999Y-56502438D02*
X162402380Y-56454819D01*
X162402380Y-56454819D02*
X162402380Y-56550057D01*
X163021427Y-57454819D02*
X162926189Y-57407200D01*
X162926189Y-57407200D02*
X162878570Y-57359580D01*
X162878570Y-57359580D02*
X162830951Y-57264342D01*
X162830951Y-57264342D02*
X162830951Y-56978628D01*
X162830951Y-56978628D02*
X162878570Y-56883390D01*
X162878570Y-56883390D02*
X162926189Y-56835771D01*
X162926189Y-56835771D02*
X163021427Y-56788152D01*
X163021427Y-56788152D02*
X163164284Y-56788152D01*
X163164284Y-56788152D02*
X163259522Y-56835771D01*
X163259522Y-56835771D02*
X163307141Y-56883390D01*
X163307141Y-56883390D02*
X163354760Y-56978628D01*
X163354760Y-56978628D02*
X163354760Y-57264342D01*
X163354760Y-57264342D02*
X163307141Y-57359580D01*
X163307141Y-57359580D02*
X163259522Y-57407200D01*
X163259522Y-57407200D02*
X163164284Y-57454819D01*
X163164284Y-57454819D02*
X163021427Y-57454819D01*
X164211903Y-57454819D02*
X164211903Y-56454819D01*
X164211903Y-57407200D02*
X164116665Y-57454819D01*
X164116665Y-57454819D02*
X163926189Y-57454819D01*
X163926189Y-57454819D02*
X163830951Y-57407200D01*
X163830951Y-57407200D02*
X163783332Y-57359580D01*
X163783332Y-57359580D02*
X163735713Y-57264342D01*
X163735713Y-57264342D02*
X163735713Y-56978628D01*
X163735713Y-56978628D02*
X163783332Y-56883390D01*
X163783332Y-56883390D02*
X163830951Y-56835771D01*
X163830951Y-56835771D02*
X163926189Y-56788152D01*
X163926189Y-56788152D02*
X164116665Y-56788152D01*
X164116665Y-56788152D02*
X164211903Y-56835771D01*
X165069046Y-57407200D02*
X164973808Y-57454819D01*
X164973808Y-57454819D02*
X164783332Y-57454819D01*
X164783332Y-57454819D02*
X164688094Y-57407200D01*
X164688094Y-57407200D02*
X164640475Y-57311961D01*
X164640475Y-57311961D02*
X164640475Y-56931009D01*
X164640475Y-56931009D02*
X164688094Y-56835771D01*
X164688094Y-56835771D02*
X164783332Y-56788152D01*
X164783332Y-56788152D02*
X164973808Y-56788152D01*
X164973808Y-56788152D02*
X165069046Y-56835771D01*
X165069046Y-56835771D02*
X165116665Y-56931009D01*
X165116665Y-56931009D02*
X165116665Y-57026247D01*
X165116665Y-57026247D02*
X164640475Y-57121485D01*
X166307142Y-57454819D02*
X166307142Y-56454819D01*
X166307142Y-56454819D02*
X166545237Y-56454819D01*
X166545237Y-56454819D02*
X166688094Y-56502438D01*
X166688094Y-56502438D02*
X166783332Y-56597676D01*
X166783332Y-56597676D02*
X166830951Y-56692914D01*
X166830951Y-56692914D02*
X166878570Y-56883390D01*
X166878570Y-56883390D02*
X166878570Y-57026247D01*
X166878570Y-57026247D02*
X166830951Y-57216723D01*
X166830951Y-57216723D02*
X166783332Y-57311961D01*
X166783332Y-57311961D02*
X166688094Y-57407200D01*
X166688094Y-57407200D02*
X166545237Y-57454819D01*
X166545237Y-57454819D02*
X166307142Y-57454819D01*
X167688094Y-57407200D02*
X167592856Y-57454819D01*
X167592856Y-57454819D02*
X167402380Y-57454819D01*
X167402380Y-57454819D02*
X167307142Y-57407200D01*
X167307142Y-57407200D02*
X167259523Y-57311961D01*
X167259523Y-57311961D02*
X167259523Y-56931009D01*
X167259523Y-56931009D02*
X167307142Y-56835771D01*
X167307142Y-56835771D02*
X167402380Y-56788152D01*
X167402380Y-56788152D02*
X167592856Y-56788152D01*
X167592856Y-56788152D02*
X167688094Y-56835771D01*
X167688094Y-56835771D02*
X167735713Y-56931009D01*
X167735713Y-56931009D02*
X167735713Y-57026247D01*
X167735713Y-57026247D02*
X167259523Y-57121485D01*
X168307142Y-57454819D02*
X168211904Y-57407200D01*
X168211904Y-57407200D02*
X168164285Y-57311961D01*
X168164285Y-57311961D02*
X168164285Y-56454819D01*
X169069047Y-57407200D02*
X168973809Y-57454819D01*
X168973809Y-57454819D02*
X168783333Y-57454819D01*
X168783333Y-57454819D02*
X168688095Y-57407200D01*
X168688095Y-57407200D02*
X168640476Y-57311961D01*
X168640476Y-57311961D02*
X168640476Y-56931009D01*
X168640476Y-56931009D02*
X168688095Y-56835771D01*
X168688095Y-56835771D02*
X168783333Y-56788152D01*
X168783333Y-56788152D02*
X168973809Y-56788152D01*
X168973809Y-56788152D02*
X169069047Y-56835771D01*
X169069047Y-56835771D02*
X169116666Y-56931009D01*
X169116666Y-56931009D02*
X169116666Y-57026247D01*
X169116666Y-57026247D02*
X168640476Y-57121485D01*
X169402381Y-56788152D02*
X169783333Y-56788152D01*
X169545238Y-56454819D02*
X169545238Y-57311961D01*
X169545238Y-57311961D02*
X169592857Y-57407200D01*
X169592857Y-57407200D02*
X169688095Y-57454819D01*
X169688095Y-57454819D02*
X169783333Y-57454819D01*
X170497619Y-57407200D02*
X170402381Y-57454819D01*
X170402381Y-57454819D02*
X170211905Y-57454819D01*
X170211905Y-57454819D02*
X170116667Y-57407200D01*
X170116667Y-57407200D02*
X170069048Y-57311961D01*
X170069048Y-57311961D02*
X170069048Y-56931009D01*
X170069048Y-56931009D02*
X170116667Y-56835771D01*
X170116667Y-56835771D02*
X170211905Y-56788152D01*
X170211905Y-56788152D02*
X170402381Y-56788152D01*
X170402381Y-56788152D02*
X170497619Y-56835771D01*
X170497619Y-56835771D02*
X170545238Y-56931009D01*
X170545238Y-56931009D02*
X170545238Y-57026247D01*
X170545238Y-57026247D02*
X170069048Y-57121485D01*
X173594819Y-70715094D02*
X172594819Y-70715094D01*
X172594819Y-70715094D02*
X172594819Y-70476999D01*
X172594819Y-70476999D02*
X172642438Y-70334142D01*
X172642438Y-70334142D02*
X172737676Y-70238904D01*
X172737676Y-70238904D02*
X172832914Y-70191285D01*
X172832914Y-70191285D02*
X173023390Y-70143666D01*
X173023390Y-70143666D02*
X173166247Y-70143666D01*
X173166247Y-70143666D02*
X173356723Y-70191285D01*
X173356723Y-70191285D02*
X173451961Y-70238904D01*
X173451961Y-70238904D02*
X173547200Y-70334142D01*
X173547200Y-70334142D02*
X173594819Y-70476999D01*
X173594819Y-70476999D02*
X173594819Y-70715094D01*
X173594819Y-69191285D02*
X173594819Y-69762713D01*
X173594819Y-69476999D02*
X172594819Y-69476999D01*
X172594819Y-69476999D02*
X172737676Y-69572237D01*
X172737676Y-69572237D02*
X172832914Y-69667475D01*
X172832914Y-69667475D02*
X172880533Y-69762713D01*
X177834819Y-72119857D02*
X177834819Y-72691285D01*
X177834819Y-72405571D02*
X176834819Y-72405571D01*
X176834819Y-72405571D02*
X176977676Y-72500809D01*
X176977676Y-72500809D02*
X177072914Y-72596047D01*
X177072914Y-72596047D02*
X177120533Y-72691285D01*
X177834819Y-71691285D02*
X176834819Y-71691285D01*
X176834819Y-71691285D02*
X177834819Y-71119857D01*
X177834819Y-71119857D02*
X176834819Y-71119857D01*
X177168152Y-70215095D02*
X177834819Y-70215095D01*
X176787200Y-70453190D02*
X177501485Y-70691285D01*
X177501485Y-70691285D02*
X177501485Y-70072238D01*
X177834819Y-69167476D02*
X177834819Y-69738904D01*
X177834819Y-69453190D02*
X176834819Y-69453190D01*
X176834819Y-69453190D02*
X176977676Y-69548428D01*
X176977676Y-69548428D02*
X177072914Y-69643666D01*
X177072914Y-69643666D02*
X177120533Y-69738904D01*
X177168152Y-68310333D02*
X177834819Y-68310333D01*
X176787200Y-68548428D02*
X177501485Y-68786523D01*
X177501485Y-68786523D02*
X177501485Y-68167476D01*
X177263390Y-67643666D02*
X177215771Y-67738904D01*
X177215771Y-67738904D02*
X177168152Y-67786523D01*
X177168152Y-67786523D02*
X177072914Y-67834142D01*
X177072914Y-67834142D02*
X177025295Y-67834142D01*
X177025295Y-67834142D02*
X176930057Y-67786523D01*
X176930057Y-67786523D02*
X176882438Y-67738904D01*
X176882438Y-67738904D02*
X176834819Y-67643666D01*
X176834819Y-67643666D02*
X176834819Y-67453190D01*
X176834819Y-67453190D02*
X176882438Y-67357952D01*
X176882438Y-67357952D02*
X176930057Y-67310333D01*
X176930057Y-67310333D02*
X177025295Y-67262714D01*
X177025295Y-67262714D02*
X177072914Y-67262714D01*
X177072914Y-67262714D02*
X177168152Y-67310333D01*
X177168152Y-67310333D02*
X177215771Y-67357952D01*
X177215771Y-67357952D02*
X177263390Y-67453190D01*
X177263390Y-67453190D02*
X177263390Y-67643666D01*
X177263390Y-67643666D02*
X177311009Y-67738904D01*
X177311009Y-67738904D02*
X177358628Y-67786523D01*
X177358628Y-67786523D02*
X177453866Y-67834142D01*
X177453866Y-67834142D02*
X177644342Y-67834142D01*
X177644342Y-67834142D02*
X177739580Y-67786523D01*
X177739580Y-67786523D02*
X177787200Y-67738904D01*
X177787200Y-67738904D02*
X177834819Y-67643666D01*
X177834819Y-67643666D02*
X177834819Y-67453190D01*
X177834819Y-67453190D02*
X177787200Y-67357952D01*
X177787200Y-67357952D02*
X177739580Y-67310333D01*
X177739580Y-67310333D02*
X177644342Y-67262714D01*
X177644342Y-67262714D02*
X177453866Y-67262714D01*
X177453866Y-67262714D02*
X177358628Y-67310333D01*
X177358628Y-67310333D02*
X177311009Y-67357952D01*
X177311009Y-67357952D02*
X177263390Y-67453190D01*
D12*
X126557143Y-101916171D02*
X126728571Y-101973314D01*
X126728571Y-101973314D02*
X126785714Y-102030457D01*
X126785714Y-102030457D02*
X126842857Y-102144742D01*
X126842857Y-102144742D02*
X126842857Y-102316171D01*
X126842857Y-102316171D02*
X126785714Y-102430457D01*
X126785714Y-102430457D02*
X126728571Y-102487600D01*
X126728571Y-102487600D02*
X126614286Y-102544742D01*
X126614286Y-102544742D02*
X126157143Y-102544742D01*
X126157143Y-102544742D02*
X126157143Y-101344742D01*
X126157143Y-101344742D02*
X126557143Y-101344742D01*
X126557143Y-101344742D02*
X126671429Y-101401885D01*
X126671429Y-101401885D02*
X126728571Y-101459028D01*
X126728571Y-101459028D02*
X126785714Y-101573314D01*
X126785714Y-101573314D02*
X126785714Y-101687600D01*
X126785714Y-101687600D02*
X126728571Y-101801885D01*
X126728571Y-101801885D02*
X126671429Y-101859028D01*
X126671429Y-101859028D02*
X126557143Y-101916171D01*
X126557143Y-101916171D02*
X126157143Y-101916171D01*
X127185714Y-101344742D02*
X127871429Y-101344742D01*
X127528571Y-102544742D02*
X127528571Y-101344742D01*
X128900000Y-102544742D02*
X128214286Y-102544742D01*
X128557143Y-102544742D02*
X128557143Y-101344742D01*
X128557143Y-101344742D02*
X128442857Y-101516171D01*
X128442857Y-101516171D02*
X128328572Y-101630457D01*
X128328572Y-101630457D02*
X128214286Y-101687600D01*
D11*
X130595238Y-101454819D02*
X131214285Y-101454819D01*
X131214285Y-101454819D02*
X130880952Y-101835771D01*
X130880952Y-101835771D02*
X131023809Y-101835771D01*
X131023809Y-101835771D02*
X131119047Y-101883390D01*
X131119047Y-101883390D02*
X131166666Y-101931009D01*
X131166666Y-101931009D02*
X131214285Y-102026247D01*
X131214285Y-102026247D02*
X131214285Y-102264342D01*
X131214285Y-102264342D02*
X131166666Y-102359580D01*
X131166666Y-102359580D02*
X131119047Y-102407200D01*
X131119047Y-102407200D02*
X131023809Y-102454819D01*
X131023809Y-102454819D02*
X130738095Y-102454819D01*
X130738095Y-102454819D02*
X130642857Y-102407200D01*
X130642857Y-102407200D02*
X130595238Y-102359580D01*
X131547619Y-102454819D02*
X132071428Y-101788152D01*
X131547619Y-101788152D02*
X132071428Y-102454819D01*
X133166667Y-102169104D02*
X133642857Y-102169104D01*
X133071429Y-102454819D02*
X133404762Y-101454819D01*
X133404762Y-101454819D02*
X133738095Y-102454819D01*
X134023810Y-102169104D02*
X134500000Y-102169104D01*
X133928572Y-102454819D02*
X134261905Y-101454819D01*
X134261905Y-101454819D02*
X134595238Y-102454819D01*
X134880953Y-102169104D02*
X135357143Y-102169104D01*
X134785715Y-102454819D02*
X135119048Y-101454819D01*
X135119048Y-101454819D02*
X135452381Y-102454819D01*
D13*
%TO.C,F1*%
X106174000Y-92237125D02*
X109665174Y-92237125D01*
X112334826Y-92237125D02*
X115826000Y-92237125D01*
X115826000Y-92237125D02*
X115826000Y-67573725D01*
X106174000Y-67573725D02*
X106174000Y-92237125D01*
X110151119Y-67573725D02*
X106174000Y-67573725D01*
X115826000Y-67573725D02*
X111848881Y-67573725D01*
D14*
%TO.C,J1*%
X173930000Y-87757000D02*
X173930000Y-80077000D01*
X176590000Y-80077000D02*
X173930000Y-80077000D01*
X176590000Y-87757000D02*
X173930000Y-87757000D01*
X176590000Y-87757000D02*
X176590000Y-80077000D01*
X176590000Y-89027000D02*
X176590000Y-90357000D01*
X176590000Y-90357000D02*
X175260000Y-90357000D01*
%TO.C,JP1*%
X157325000Y-56000000D02*
X160125000Y-56000000D01*
X157325000Y-58000000D02*
X157325000Y-56000000D01*
X160125000Y-56000000D02*
X160125000Y-58000000D01*
X160125000Y-58000000D02*
X157325000Y-58000000D01*
%TO.C,D1*%
X174140000Y-67857000D02*
X174140000Y-72097000D01*
X174140000Y-71257000D02*
X176380000Y-71257000D01*
X174140000Y-71377000D02*
X176380000Y-71377000D01*
X174140000Y-71497000D02*
X176380000Y-71497000D01*
X174140000Y-72097000D02*
X176380000Y-72097000D01*
X175260000Y-67207000D02*
X175260000Y-67857000D01*
X175260000Y-72747000D02*
X175260000Y-72097000D01*
X176380000Y-67857000D02*
X174140000Y-67857000D01*
X176380000Y-72097000D02*
X176380000Y-67857000D01*
D15*
%TO.C,BT1*%
X117374000Y-68445000D02*
X117374000Y-67445000D01*
X117374000Y-93845000D02*
X117374000Y-92845000D01*
X117874000Y-67945000D02*
X116874000Y-67945000D01*
X117874000Y-80645000D02*
X116874000Y-80645000D01*
X117874000Y-93345000D02*
X116874000Y-93345000D01*
X118374000Y-61195000D02*
X170874000Y-61195000D01*
X118374000Y-98695000D02*
X118374000Y-61195000D01*
X170874000Y-61195000D02*
X170874000Y-98695000D01*
X170874000Y-98695000D02*
X118374000Y-98695000D01*
%TD*%
M02*
